<svg width="36" height="37" viewBox="0 0 36 37" fill="none" xmlns="http://www.w3.org/2000/svg">
<path fill-rule="evenodd" clip-rule="evenodd" d="M3.85714 4.35742C1.7269 4.35742 0 6.08432 0 8.21456V28.786C0 30.9162 1.7269 32.6431 3.85714 32.6431H32.1429C34.273 32.6431 36 30.9162 36 28.786V8.21456C36 6.08432 34.273 4.35742 32.1429 4.35742H3.85714ZM18 12.7146C14.8046 12.7146 12.2143 15.3049 12.2143 18.5003C12.2143 21.6956 14.8046 24.286 18 24.286C21.1954 24.286 23.7857 21.6956 23.7857 18.5003C23.7857 15.3049 21.1954 12.7146 18 12.7146ZM6.49273 16.5717C5.42762 16.5717 4.56403 17.4352 4.56403 18.5003C4.56403 19.5654 5.42749 20.4289 6.4926 20.4289C7.55771 20.4289 8.4213 19.5654 8.4213 18.5003C8.4213 17.4352 7.55784 16.5717 6.49273 16.5717ZM29.5074 16.5717C28.4423 16.5717 27.5788 17.4352 27.5788 18.5003C27.5788 19.5654 28.4423 20.4289 29.5074 20.4289C30.5727 20.4289 31.436 19.5654 31.436 18.5003C31.436 17.4352 30.5727 16.5717 29.5074 16.5717Z" fill="#4D308E"/>
</svg>
