<svg width="36" height="36" viewBox="0 0 36 36" fill="none" xmlns="http://www.w3.org/2000/svg">
<path fill-rule="evenodd" clip-rule="evenodd" d="M8.99993 1.28564C10.4201 1.28564 11.5714 2.43691 11.5714 3.85707V6.4285H24.4285V3.85707C24.4285 2.43691 25.5798 1.28564 26.9999 1.28564C28.4201 1.28564 29.5714 2.43691 29.5714 3.85707V6.4285H30.8571C32.9872 6.4285 34.7142 8.1554 34.7142 10.2856V13.8214H1.28564V10.2856C1.28564 8.1554 3.01254 6.4285 5.14279 6.4285H6.4285V3.85707C6.4285 2.43691 7.57978 1.28564 8.99993 1.28564ZM1.28564 30.8571V17.0356H34.7142V30.8571C34.7142 32.9872 32.9872 34.7142 30.8571 34.7142H5.14279C3.01254 34.7142 1.28564 32.9872 1.28564 30.8571Z" fill="#4D308E"/>
</svg>
