<svg width="34" height="34" viewBox="0 0 34 34" fill="none" xmlns="http://www.w3.org/2000/svg">
<path fill-rule="evenodd" clip-rule="evenodd" d="M10.5714 2.85707C10.5714 1.43691 9.42008 0.285645 7.99993 0.285645C6.57978 0.285645 5.4285 1.43691 5.4285 2.85707V5.4285H4.14279C2.01254 5.4285 0.285645 7.1554 0.285645 9.28564V29.8571C0.285645 31.9872 2.01254 33.7142 4.14279 33.7142H29.8571C31.9872 33.7142 33.7142 31.9872 33.7142 29.8571V9.28564C33.7142 7.1554 31.9872 5.4285 29.8571 5.4285H28.5714V2.85707C28.5714 1.43691 27.4201 0.285645 25.9999 0.285645C24.5798 0.285645 23.4285 1.43691 23.4285 2.85707V5.4285H10.5714V2.85707ZM16.9999 11.8571C12.3844 11.8571 8.64279 15.5987 8.64279 20.2142C8.64279 24.8297 12.3844 28.5714 16.9999 28.5714C21.6155 28.5714 25.3571 24.8297 25.3571 20.2142C25.3571 15.5987 21.6155 11.8571 16.9999 11.8571ZM16.9999 16.0356C17.8875 16.0356 18.6071 16.7552 18.6071 17.6428V19.6022L19.9611 19.9408C20.8223 20.156 21.3458 21.0286 21.1305 21.8897C20.9152 22.7508 20.0427 23.2744 19.1816 23.0591L16.6102 22.4162C15.8947 22.2374 15.3928 21.5945 15.3928 20.8571V17.6428C15.3928 16.7552 16.1123 16.0356 16.9999 16.0356Z" fill="#4D308E"/>
</svg>
