<svg width="36" height="37" viewBox="0 0 36 37" fill="none" xmlns="http://www.w3.org/2000/svg">
<path fill-rule="evenodd" clip-rule="evenodd" d="M17.9999 36.5C27.941 36.5 35.9999 28.4411 35.9999 18.5C35.9999 8.55888 27.941 0.5 17.9999 0.5C8.05876 0.5 -0.00012207 8.55888 -0.00012207 18.5C-0.00012207 28.4411 8.05876 36.5 17.9999 36.5ZM27.0071 13.9191C27.6723 13.0873 27.5376 11.8737 26.7057 11.2083C25.8741 10.5429 24.6604 10.6778 23.9951 11.5095L14.8771 22.907L11.2296 20.1714C10.3775 19.5324 9.16867 19.705 8.52959 20.5571C7.89054 21.4092 8.06321 22.6181 8.9153 23.2571L14.0582 27.1143C14.8915 27.7394 16.0706 27.5895 16.7213 26.7761L27.0071 13.9191Z" fill="#4D308E"/>
</svg>
