<svg width="36" height="36" viewBox="0 0 36 36" fill="none" xmlns="http://www.w3.org/2000/svg">
<path fill-rule="evenodd" clip-rule="evenodd" d="M17.1555 2.07856C17.6334 1.64048 18.3669 1.64048 18.8448 2.07856L33.0341 15.0854C33.8089 15.7957 34.2501 16.7986 34.2501 17.8498V30.5C34.2501 32.571 32.5711 34.25 30.5001 34.25H5.50012C3.42905 34.25 1.75012 32.571 1.75012 30.5V17.8498C1.75012 16.7986 2.1913 15.7957 2.96615 15.0854L17.1555 2.07856ZM19.5626 13V14.1968C20.5603 14.3518 21.4443 14.8525 22.0858 15.5692C22.4525 15.9789 22.7421 16.4612 22.9302 16.9933C23.2178 17.8069 22.7914 18.6996 21.9777 18.9872C21.1641 19.2748 20.2714 18.8483 19.9839 18.0347C19.9341 17.894 19.8568 17.7646 19.7573 17.6533C19.5452 17.4164 19.242 17.271 18.9028 17.271H16.8065C16.3343 17.271 15.9515 17.6538 15.9515 18.126C15.9515 18.5278 16.2313 18.8754 16.6238 18.9613L19.8155 19.6595C21.7767 20.0885 23.1736 21.826 23.1736 23.8324C23.1736 25.966 21.6086 27.7363 19.5626 28.0535V29.25C19.5626 30.113 18.8631 30.8125 18.0001 30.8125C17.1372 30.8125 16.4376 30.113 16.4376 29.25V28.0537C14.869 27.8105 13.5849 26.714 13.0699 25.2569C12.7823 24.4433 13.2088 23.5506 14.0224 23.263C14.836 22.9754 15.7287 23.4019 16.0163 24.2155C16.1743 24.6626 16.6008 24.9792 17.0973 24.9792H17.9869C17.9913 24.9792 17.9957 24.9792 18.0001 24.9792C18.0046 24.9792 18.009 24.9792 18.0134 24.9792H18.9028C19.5349 24.9792 20.0486 24.466 20.0486 23.8324C20.0486 23.2934 19.6732 22.8272 19.1477 22.7123L15.956 22.0141C14.1288 21.6144 12.8265 19.9964 12.8265 18.126C12.8265 16.0522 14.4125 14.3489 16.4376 14.1628V13C16.4376 12.137 17.1372 11.4375 18.0001 11.4375C18.8631 11.4375 19.5626 12.137 19.5626 13Z" fill="#4D308E"/>
</svg>
