<svg width="24" height="24" viewBox="0 0 24 24" fill="none" xmlns="http://www.w3.org/2000/svg">
<g clip-path="url(#clip0_1249_32537)">
<path fill-rule="evenodd" clip-rule="evenodd" d="M0.753154 0.753154C1.23539 0.270917 1.88945 0 2.57143 0H16.2857C16.9677 0 17.6218 0.270917 18.1041 0.753154C18.5863 1.23539 18.8571 1.88943 18.8571 2.57143V10.3117C18.6787 10.4253 18.5117 10.559 18.3598 10.7111L13.977 15.1033L5.92839 7.05463C5.59366 6.71988 5.05094 6.71988 4.71621 7.05463L2.14286 9.62798V16.2857C2.14286 16.3994 2.18801 16.5084 2.26838 16.5888C2.34876 16.6691 2.45777 16.7143 2.57143 16.7143H12.3694L11.1659 17.9203C10.8964 18.1905 10.6844 18.5091 10.5396 18.8571H2.57143C1.88943 18.8571 1.23539 18.5863 0.753154 18.1041C0.270917 17.6218 0 16.9677 0 16.2857V2.57143C0 1.88945 0.270917 1.23539 0.753154 0.753154ZM12.2143 3.64286C13.6345 3.64286 14.7857 4.79412 14.7857 6.21429C14.7857 7.63445 13.6345 8.78571 12.2143 8.78571C10.7941 8.78571 9.64286 7.63445 9.64286 6.21429C9.64286 4.79412 10.7941 3.64286 12.2143 3.64286ZM20.9595 12.2242C20.8159 12.0805 20.6211 11.9999 20.418 12C20.2149 12.0001 20.0201 12.0809 19.8766 12.2247L12.6828 19.4338C12.5656 19.5513 12.4898 19.7035 12.4667 19.8677L12.0075 23.1279C11.974 23.3654 12.0538 23.6047 12.2229 23.7746C12.392 23.9445 12.631 24.0254 12.8686 23.993L16.1288 23.5491C16.2945 23.5265 16.4484 23.4502 16.5667 23.3319L23.7758 16.1228C24.0747 15.8239 24.0747 15.3393 23.7758 15.0405L20.9595 12.2242Z" fill="#4D308E"/>
</g>
<defs>
<clipPath id="clip0_1249_32537">
<rect width="24" height="24" fill="white"/>
</clipPath>
</defs>
</svg>
