<svg width="34" height="34" viewBox="0 0 34 34" fill="none" xmlns="http://www.w3.org/2000/svg">
<path fill-rule="evenodd" clip-rule="evenodd" d="M6.71434 0.285645C5.00938 0.285645 3.37423 0.962938 2.16864 2.16852C0.96306 3.37411 0.285767 5.00926 0.285767 6.71422V32.4285C0.285767 32.9027 0.546746 33.3383 0.964806 33.562C1.38287 33.7857 1.89013 33.7613 2.28467 33.4982L7.3572 30.1165L12.4297 33.4982C12.8616 33.7862 13.4242 33.7862 13.8561 33.4982L18.9286 30.1165L24.0012 33.4982C24.3957 33.7613 24.9028 33.7857 25.3209 33.562C25.739 33.3383 26.0001 32.9027 26.0001 32.4285V13.1428H26.0052V6.71422C26.0052 5.82661 26.7247 5.10707 27.6123 5.10707C28.4997 5.10707 29.2195 5.82661 29.2195 6.71422V13.1428H32.4286C33.1386 13.1428 33.7143 12.5671 33.7143 11.8571V5.4285C33.7143 4.06454 33.1725 2.75643 32.208 1.79196C31.2435 0.827481 29.9354 0.285645 28.5715 0.285645H6.71434ZM21.1171 12.6389C21.8185 11.8374 21.7372 10.619 20.9356 9.91757C20.1341 9.21619 18.9157 9.2974 18.2143 10.099L11.0899 18.2411L7.77667 15.7562C6.92458 15.1171 5.71575 15.2898 5.07667 16.1419C4.43762 16.994 4.61029 18.2028 5.46239 18.8419L10.2064 22.3999C11.0135 23.0052 12.1507 22.8863 12.815 22.1271L21.1171 12.6389Z" fill="#4D308E"/>
</svg>
