<svg width="36" height="37" viewBox="0 0 36 37" fill="none" xmlns="http://www.w3.org/2000/svg">
<g clip-path="url(#clip0_3436_13769)">
<path fill-rule="evenodd" clip-rule="evenodd" d="M3.16852 4.16803C4.37411 2.96245 6.00926 2.28516 7.71422 2.28516H29.5714C30.9352 2.28516 32.2433 2.82699 33.2079 3.79147C34.1724 4.75594 34.7142 6.06405 34.7142 7.42801V13.8566C34.7142 14.5667 34.1385 15.1423 33.4285 15.1423H30.2194V8.71373C30.2194 7.82612 29.4996 7.10659 28.6122 7.10659C27.7246 7.10659 27.0051 7.82612 27.0051 8.71373V15.1423H26.9999V34.428C26.9999 34.9022 26.7389 35.3378 26.3208 35.5615C25.9027 35.7852 25.3956 35.7608 25.001 35.4977L19.9285 32.116L14.856 35.4977C14.4241 35.7857 13.8615 35.7857 13.4296 35.4977L8.35707 32.116L3.28454 35.4977C2.89001 35.7608 2.38274 35.7852 1.96468 35.5615C1.54662 35.3378 1.28564 34.9022 1.28564 34.428V8.71373C1.28564 7.00877 1.96294 5.37362 3.16852 4.16803Z" fill="#4D308E"/>
</g>
<defs>
<clipPath id="clip0_3436_13769">
<rect width="36" height="36" fill="white" transform="translate(0.00170898 0.5)"/>
</clipPath>
</defs>
</svg>
