<svg width="36" height="37" viewBox="0 0 36 37" fill="none" xmlns="http://www.w3.org/2000/svg">
<path fill-rule="evenodd" clip-rule="evenodd" d="M12.2172 2.42857C12.2172 1.36345 13.0806 0.5 14.1458 0.5H21.86C22.9251 0.5 23.7886 1.36345 23.7886 2.42857C23.7886 3.49368 22.9251 4.35714 21.86 4.35714H19.9315V5.76222C27.5421 6.71126 33.4315 13.2036 33.4315 21.0714C33.4315 29.5924 26.5238 36.5 18.0029 36.5C9.48193 36.5 2.57432 29.5924 2.57432 21.0714C2.57432 13.2036 8.46359 6.71126 16.0743 5.76222V4.35714H14.1458C13.0806 4.35714 12.2172 3.49368 12.2172 2.42857ZM3.93803 9.57799L6.50946 7.00656C7.2626 6.25342 7.2626 5.0323 6.50946 4.27915C5.75631 3.52601 4.53519 3.52601 3.78205 4.27915L1.21062 6.85058C0.457464 7.60373 0.457464 8.82485 1.21062 9.57799C1.96377 10.3311 3.18488 10.3311 3.93803 9.57799ZM29.4964 4.27915C30.2496 3.52601 31.4705 3.52601 32.2237 4.27915L34.7951 6.85058C35.5483 7.60373 35.5483 8.82485 34.7951 9.57799C34.0419 10.3311 32.821 10.3311 32.0678 9.57799L29.4964 7.00656C28.7432 6.25342 28.7432 5.0323 29.4964 4.27915ZM18.0029 11.75C18.8905 11.75 19.61 12.4695 19.61 13.3571V19.4643H24.4315C25.3191 19.4643 26.0386 20.1838 26.0386 21.0714C26.0386 21.959 25.3191 22.6786 24.4315 22.6786H18.0029C17.1153 22.6786 16.3958 21.959 16.3958 21.0714V13.3571C16.3958 12.4695 17.1153 11.75 18.0029 11.75Z" fill="#4D308E"/>
</svg>
